<svg width="35" height="62" viewBox="0 0 35 62" fill="none" xmlns="http://www.w3.org/2000/svg">
<path d="M27.962 56.2309H4.03316C2.33198 56.2309 0.953491 54.6948 0.953491 52.8011V4.36919C0.953491 2.47546 2.33198 0.939392 4.03316 0.939392H27.962C29.6632 0.939392 31.0417 2.47546 31.0417 4.36919V52.8011C31.0417 54.6948 29.6632 56.2309 27.962 56.2309Z" stroke="white" stroke-width="1.5" stroke-miterlimit="10"/>
<path d="M0.953491 8.7424H31.0417" stroke="white" stroke-width="1.5" stroke-linejoin="round"/>
<path d="M0.953491 47.2339H31.0417" stroke="white" stroke-width="1.5" stroke-linejoin="round"/>
<path d="M13.23 4.70956H18.765" stroke="white" stroke-width="1.5" stroke-linecap="round" stroke-linejoin="round"/>
<path d="M16.906 51.6313C16.906 52.1099 16.4991 52.4987 15.9975 52.4987C15.4959 52.4987 15.0891 52.1099 15.0891 51.6313C15.0891 51.1527 15.4959 50.7639 15.9975 50.7639C16.4991 50.7639 16.906 51.1527 16.906 51.6313V51.6313Z" stroke="white" stroke-width="1.5" stroke-linejoin="round"/>
<path d="M8.95605 35.5225L22.7777 21.9052" stroke="white" stroke-width="1.5" stroke-miterlimit="10" stroke-linecap="round"/>
<path d="M10.5187 26.4288C12.3358 26.4288 13.8088 24.9775 13.8088 23.1873C13.8088 21.3971 12.3358 19.9458 10.5187 19.9458C8.70162 19.9458 7.22858 21.3971 7.22858 23.1873C7.22858 24.9775 8.70162 26.4288 10.5187 26.4288Z" stroke="white" stroke-width="1.5" stroke-miterlimit="10" stroke-linecap="round"/>
<path d="M21.4764 37.2244C23.2935 37.2244 24.7665 35.7732 24.7665 33.9829C24.7665 32.1927 23.2935 30.7415 21.4764 30.7415C19.6593 30.7415 18.1863 32.1927 18.1863 33.9829C18.1863 35.7732 19.6593 37.2244 21.4764 37.2244Z" stroke="white" stroke-width="1.5" stroke-miterlimit="10" stroke-linecap="round"/>
</svg>
