<svg width="64" height="64" viewBox="0 0 64 64" fill="none" xmlns="http://www.w3.org/2000/svg">
<path d="M1 47L3.14 45.58C3.61 45.27 4.24 45.4 4.54 45.88L13.48 60.18C13.77 60.64 13.64 61.24 13.19 61.54L11 62.99" stroke="white" stroke-width="2" stroke-linecap="round" stroke-linejoin="round"/>
<path d="M26 47H36C38.2 47 40 45.2 40 43C40 40.8 38.2 39 36 39H19.82C18.64 39 17.48 39.35 16.49 40.01L5.47 47.36" stroke="white" stroke-width="2" stroke-linecap="round" stroke-linejoin="round"/>
<path d="M37.3 46.78L54.47 40.33C56.5 39.49 58.85 40.46 59.7 42.49C60.54 44.52 59.57 46.87 57.54 47.72L39.88 55.21C38.65 55.73 37.32 56 35.98 56H20.41C19.24 56 18.09 56.34 17.11 56.99L13.13 59.61" stroke="white" stroke-width="2" stroke-linecap="round" stroke-linejoin="round"/>
<path d="M60 4H56.5L39.5 2H30.45C29.18 2 27.95 2.4 26.92 3.15L23 6" stroke="white" stroke-width="2" stroke-linecap="round" stroke-linejoin="round"/>
<path d="M38 11H25C22.8 11 21 12.8 21 15C21 17.2 22.8 19 25 19H39.5C39.5 19 43.97 22.84 49 22C55 21 56.5 19 56.5 19H60" stroke="white" stroke-width="2" stroke-linecap="round" stroke-linejoin="round"/>
<path d="M63 1H61C60.45 1 60 1.45 60 2V21C60 21.55 60.45 22 61 22H63" stroke="white" stroke-width="2" stroke-linecap="round" stroke-linejoin="round"/>
<path d="M19.9 34.56C7.42 28.06 3 16.24 3 16.24L20.45 1C21.46 5.14 23.55 8.3 26.3 11" stroke="white" stroke-width="2" stroke-linecap="round" stroke-linejoin="round"/>
<path d="M41.34 20.26C47.34 25.26 49.47 33.5 49.47 33.5L45 37.28" stroke="white" stroke-width="2" stroke-linecap="round" stroke-linejoin="round"/>
<path d="M38.23 35L40.91 32.8C40.91 32.8 40.11 30.27 40.98 28.61L37.17 25" stroke="white" stroke-width="2" stroke-linecap="round" stroke-linejoin="round"/>
<path d="M16.09 11.42L11.83 15.55C11.83 15.55 12.63 18.08 10.5 20.14C10.5 20.14 12.96 23.54 14.63 24.4" stroke="white" stroke-width="2" stroke-linecap="round" stroke-linejoin="round"/>
<path d="M24 19C19 22 18.82 26.93 20.68 29.27C22.54 31.61 26.49 31.42 29.52 28.83C32.11 26.61 33.01 22 32.01 20" stroke="white" stroke-width="2" stroke-linecap="round" stroke-linejoin="round"/>
</svg>
