<svg width="56" height="56" viewBox="0 0 56 56" fill="none" xmlns="http://www.w3.org/2000/svg">
<path d="M47.2587 37.625L46.0512 37.4762C45.64 37.4237 45.2725 37.1875 45.0537 36.8375L38.675 26.4337C37.835 25.06 36.3125 24.2637 34.7025 24.3512L26.88 24.7887C24.5787 24.92 22.7675 26.81 22.75 29.12L22.7237 32.27C22.7237 32.3225 22.7237 32.375 22.7237 32.4362L22.2425 37.3362C22.1375 38.395 23.0037 39.305 24.0625 39.2525L25.0162 39.2087C26.8887 39.1212 28.49 37.8525 29.015 36.0587L29.7412 33.565C29.9425 32.8737 29.6975 32.13 29.1287 31.6837L28.875 31.4912" stroke="#AE285D" stroke-width="2" stroke-linecap="round" stroke-linejoin="round"/>
<path d="M37.625 42.875C32.375 41.125 30.45 34.9125 29.7937 32.7863" stroke="#AE285D" stroke-width="2" stroke-linecap="round" stroke-linejoin="round"/>
<path d="M44.1262 53.235L42.5425 52.85C41.6237 52.6225 40.6525 52.7012 39.7775 53.0775L38.64 53.5675C36.2687 54.5825 33.6437 54.8275 31.1325 54.2587L17.0187 51.0912" stroke="#AE285D" stroke-width="2" stroke-linecap="round" stroke-linejoin="round"/>
<path d="M23.625 26.25L20.16 25.235C18.48 24.745 16.7213 25.7163 16.24 27.405C15.7588 29.1025 16.7475 30.8613 18.4363 31.3338L22.12 32.375" stroke="#AE285D" stroke-width="2" stroke-linecap="round" stroke-linejoin="round"/>
<path d="M12.6525 40.25C12.4512 41.79 13.405 43.2862 14.945 43.7237L21.0787 45.4562C22.7675 45.9375 24.535 44.9487 25.0075 43.26C25.4887 41.5712 24.5 39.8037 22.8112 39.3312L15.4612 37.1875C13.7725 36.7062 12.7837 34.9475 13.265 33.2587" stroke="#AE285D" stroke-width="2" stroke-linecap="round" stroke-linejoin="round"/>
<path d="M13.5975 47.3812C13.3525 49.1225 14.56 50.7325 16.3012 50.9862L21.0787 51.6687C22.82 51.9137 24.43 50.7062 24.6837 48.965C24.85 47.7837 24.3512 46.6725 23.4762 45.99" stroke="#AE285D" stroke-width="2" stroke-linecap="round" stroke-linejoin="round"/>
<path d="M55.125 37.625L49.8575 36.3125C48.9037 36.0762 47.9412 36.6625 47.7225 37.625L44.1437 52.57C43.9162 53.5062 44.4937 54.4425 45.4212 54.6787L47.2412 55.1337" stroke="#AE285D" stroke-width="2" stroke-linecap="round" stroke-linejoin="round"/>
<path d="M21 25.375C21 25.375 17.6925 14 23.8262 0.875L42.875 7.875C42.875 7.875 39.375 13.125 36.4437 24.5" stroke="#AE285D" stroke-width="2" stroke-linecap="round" stroke-linejoin="round"/>
<path d="M24.5 17.5C24.5 15.75 24.5 11.375 26.1275 8.75C26.1275 8.75 27.6588 8.75 28.4288 7L35.3237 9.625C35.3237 9.625 34.5538 11.375 36.0938 13.125C36.0938 13.125 34.7462 15.3825 33.7925 19.25" stroke="#AE285D" stroke-width="2" stroke-linecap="round" stroke-linejoin="round"/>
<path d="M32.2087 23.625C31.8675 20.8512 29.82 20.125 28.4287 20.125C25.8912 20.125 24.5087 21.84 24.5087 24.5V25.375" stroke="#AE285D" stroke-width="2" stroke-linecap="round" stroke-linejoin="round"/>
<path d="M18.375 3.5L8.75 4.375C8.75 4.375 19.25 14.875 19.25 24.5" stroke="#AE285D" stroke-width="2" stroke-linecap="round" stroke-linejoin="round"/>
<path d="M12.25 8.75L0.875 13.125C0.875 13.125 13.125 12.25 19.25 24.5" stroke="#AE285D" stroke-width="2" stroke-linecap="round" stroke-linejoin="round"/>
</svg>
