<svg width="64" height="64" viewBox="0 0 64 64" fill="none" xmlns="http://www.w3.org/2000/svg">
<path d="M22 15C13.2 15 6 22.2 6 31V53C3.25 53 1 55.25 1 58C1 60.75 3.25 63 6 63H28" stroke="#464646" stroke-width="2" stroke-linecap="round" stroke-linejoin="round"/>
<path d="M44.72 28C43.31 20.62 36.78 15 29 15" stroke="#464646" stroke-width="2" stroke-linecap="round" stroke-linejoin="round"/>
<path d="M22 15H21C19.9 15 19 14.1 19 13C19 11.9 19.9 11 21 11H30C31.1 11 32 11.9 32 13C32 14.1 31.1 15 30 15H29" stroke="#464646" stroke-width="2" stroke-linecap="round" stroke-linejoin="round"/>
<path d="M29 11H22C19.25 11 17 8.75 17 6C17 3.25 19.25 1 22 1C26 4 29 1 29 1C31.75 1 34 3.25 34 6C34 8.75 31.75 11 29 11Z" stroke="#464646" stroke-width="2" stroke-linecap="round" stroke-linejoin="round"/>
<path d="M20 45C21.5 48 24.5 48 24.5 48H27.5C29.98 48 32 45.98 32 43.5C32 41.02 29.98 39 27.5 39H24.5C22.02 39 20 36.98 20 34.5C20 32.02 22.02 30 24.5 30H27.5C27.5 30 30.5 30 32 33" stroke="#464646" stroke-width="2" stroke-linecap="round" stroke-linejoin="round"/>
<path d="M26 27V30" stroke="#464646" stroke-width="2" stroke-linecap="round" stroke-linejoin="round"/>
<path d="M26 48V51" stroke="#464646" stroke-width="2" stroke-linecap="round" stroke-linejoin="round"/>
<path d="M37.5 63H56.5C56.7761 63 57 62.7761 57 62.5V56.5C57 56.2239 56.7761 56 56.5 56H37.5C37.2239 56 37 56.2239 37 56.5V62.5C37 62.7761 37.2239 63 37.5 63Z" stroke="#464646" stroke-width="2" stroke-linecap="round" stroke-linejoin="round"/>
<path d="M39.5 56H58.5C58.7761 56 59 55.7761 59 55.5V49.5C59 49.2239 58.7761 49 58.5 49H39.5C39.2239 49 39 49.2239 39 49.5V55.5C39 55.7761 39.2239 56 39.5 56Z" stroke="#464646" stroke-width="2" stroke-linecap="round" stroke-linejoin="round"/>
<path d="M43.5 49H62.5C62.7761 49 63 48.7761 63 48.5V42.5C63 42.2239 62.7761 42 62.5 42H43.5C43.2239 42 43 42.2239 43 42.5V48.5C43 48.7761 43.2239 49 43.5 49Z" stroke="#464646" stroke-width="2" stroke-linecap="round" stroke-linejoin="round"/>
<path d="M41.5 42H60.5C60.7761 42 61 41.7761 61 41.5V35.5C61 35.2239 60.7761 35 60.5 35H41.5C41.2239 35 41 35.2239 41 35.5V41.5C41 41.7761 41.2239 42 41.5 42Z" stroke="#464646" stroke-width="2" stroke-linecap="round" stroke-linejoin="round"/>
</svg>
