<svg width="56" height="64" viewBox="0 0 56 64" fill="none" xmlns="http://www.w3.org/2000/svg">
<path d="M1.5 63H20.5C20.7761 63 21 62.7761 21 62.5V56.5C21 56.2239 20.7761 56 20.5 56H1.5C1.22386 56 1 56.2239 1 56.5V62.5C1 62.7761 1.22386 63 1.5 63Z" stroke="#464646" stroke-width="2" stroke-linecap="round" stroke-linejoin="round"/>
<path d="M3.5 56H22.5C22.7761 56 23 55.7761 23 55.5V49.5C23 49.2239 22.7761 49 22.5 49H3.5C3.22386 49 3 49.2239 3 49.5V55.5C3 55.7761 3.22386 56 3.5 56Z" stroke="#464646" stroke-width="2" stroke-linecap="round" stroke-linejoin="round"/>
<path d="M1.5 49H20.5C20.7761 49 21 48.7761 21 48.5V42.5C21 42.2239 20.7761 42 20.5 42H1.5C1.22386 42 1 42.2239 1 42.5V48.5C1 48.7761 1.22386 49 1.5 49Z" stroke="#464646" stroke-width="2" stroke-linecap="round" stroke-linejoin="round"/>
<path d="M49.5 56H30.5C30.2239 56 30 56.2239 30 56.5V62.5C30 62.7761 30.2239 63 30.5 63H49.5C49.7761 63 50 62.7761 50 62.5V56.5C50 56.2239 49.7761 56 49.5 56Z" stroke="#464646" stroke-width="2" stroke-linecap="round" stroke-linejoin="round"/>
<path d="M51.5 49H32.5C32.2239 49 32 49.2239 32 49.5V55.5C32 55.7761 32.2239 56 32.5 56H51.5C51.7761 56 52 55.7761 52 55.5V49.5C52 49.2239 51.7761 49 51.5 49Z" stroke="#464646" stroke-width="2" stroke-linecap="round" stroke-linejoin="round"/>
<path d="M22 28H5.5C5.22 28 5 28.22 5 28.5V34.5C5 34.78 5.22 35 5.5 35H22" stroke="#464646" stroke-width="2" stroke-linecap="round" stroke-linejoin="round"/>
<path d="M55 20H49V1H55" stroke="#464646" stroke-width="2" stroke-linecap="round" stroke-linejoin="round"/>
<path d="M10 28V17.36C10 16.48 10.29 15.62 10.83 14.92L18.5 4.95C19.45 3.72 20.91 3 22.46 3H49" stroke="#464646" stroke-width="2" stroke-linecap="round" stroke-linejoin="round"/>
<path d="M17 28V20L21 15H27C28.1 15 29 15.9 29 17V21L21.72 29.26C20.31 30.95 20.53 33.48 22.21 34.9C23.9 36.31 26.43 36.09 27.85 34.41L36 25.01C39 25.01 44 23.01 46 17.01H49" stroke="#464646" stroke-width="2" stroke-linecap="round" stroke-linejoin="round"/>
</svg>
