<svg width="45" height="112" viewBox="0 0 45 112" fill="none" xmlns="http://www.w3.org/2000/svg">
<path d="M22.1591 84.7457C18.6967 84.7457 15.7138 83.6183 13.2102 81.3633C10.7244 79.1083 8.80682 75.8857 7.45739 71.6953C6.10795 67.505 5.43324 62.5156 5.43324 56.7273C5.43324 50.9389 6.10795 45.9496 7.45739 41.7592C8.80682 37.5689 10.7244 34.3462 13.2102 32.0913C15.7138 29.8363 18.6967 28.7088 22.1591 28.7088C25.6214 28.7088 28.5955 29.8363 31.0813 32.0913C33.5849 34.3462 35.5114 37.5689 36.8608 41.7592C38.2102 45.9496 38.8849 50.9389 38.8849 56.7273C38.8849 62.5156 38.2102 67.505 36.8608 71.6953C35.5114 75.8857 33.5849 79.1083 31.0813 81.3633C28.5955 83.6183 25.6214 84.7457 22.1591 84.7457ZM22.1591 83.0412C26.8111 83.0412 30.4776 80.7063 33.1587 76.0366C35.8398 71.3668 37.1804 64.9304 37.1804 56.7273C37.1804 51.2585 36.5678 46.5621 35.3427 42.6381C34.1353 38.6964 32.413 35.6779 30.1758 33.5827C27.9386 31.4698 25.2663 30.4133 22.1591 30.4133C17.5071 30.4133 13.8406 32.7482 11.1594 37.418C8.47834 42.0877 7.13778 48.5241 7.13778 56.7273C7.13778 62.196 7.74148 66.9013 8.94886 70.843C10.174 74.767 11.9052 77.7855 14.1424 79.8984C16.3974 81.9936 19.0696 83.0412 22.1591 83.0412Z" fill="white"/>
<path d="M22.25 77.5469C19.7109 77.5469 17.5234 76.7201 15.6875 75.0664C13.8646 73.4128 12.4583 71.0495 11.4688 67.9766C10.4792 64.9036 9.98438 61.2448 9.98438 57C9.98438 52.7552 10.4792 49.0964 11.4688 46.0234C12.4583 42.9505 13.8646 40.5872 15.6875 38.9336C17.5234 37.2799 19.7109 36.4531 22.25 36.4531C24.7891 36.4531 26.9701 37.2799 28.793 38.9336C30.6289 40.5872 32.0417 42.9505 33.0313 46.0234C34.0208 49.0964 34.5156 52.7552 34.5156 57C34.5156 61.2448 34.0208 64.9036 33.0313 67.9766C32.0417 71.0495 30.6289 73.4128 28.793 75.0664C26.9701 76.7201 24.7891 77.5469 22.25 77.5469ZM22.25 76.2969C25.6615 76.2969 28.3503 74.5846 30.3164 71.1602C32.2826 67.7357 33.2656 63.0156 33.2656 57C33.2656 52.9896 32.8164 49.5456 31.918 46.668C31.0326 43.7773 29.7695 41.5638 28.1289 40.0273C26.4883 38.4779 24.5286 37.7031 22.25 37.7031C18.8385 37.7031 16.1497 39.4154 14.1836 42.8398C12.2174 46.2643 11.2344 50.9844 11.2344 57C11.2344 61.0104 11.6771 64.4609 12.5625 67.3516C13.4609 70.2292 14.7305 72.4427 16.3711 73.9922C18.0247 75.5286 19.9844 76.2969 22.25 76.2969Z" fill="white"/>
</svg>
